<?xml version="1.0" encoding="UTF-8"?>
<svg width="20px" height="20px" viewBox="0 0 20 20" version="1.1" xmlns="http://www.w3.org/2000/svg" xmlns:xlink="http://www.w3.org/1999/xlink">
    <!-- Generator: sketchtool 62 (101010) - https://sketch.com -->
    <title>8601E3FF-78F8-4EA7-B082-775C9944E8C4</title>
    <desc>Created with sketchtool.</desc>
    <g id="Asset-Artboard-Page" stroke="none" stroke-width="1" fill="none" fill-rule="evenodd">
        <g id="ico/hide" fill="#FE5000">
            <path d="M18.8582129,0.196600947 L14.2159523,4.83886374 C12.9136036,4.15592 11.469557,3.7870901 9.99922119,3.76185106 C4.57519408,3.76185106 0.313282007,9.36142018 0.133313632,9.59917967 C-0.0444378774,9.83620266 -0.0444378774,10.1620951 0.133313632,10.3991181 C1.38357844,11.9906539 2.8844532,13.368174 4.57711838,14.4776932 L0.196455441,18.8583739 C-0.0637179708,19.1195216 -0.0633226518,19.5420149 0.197339005,19.8026753 C0.458000663,20.0633358 0.880493949,20.0637291 1.14164049,19.8035545 L19.8034002,1.141786 C19.9727355,0.973043671 20.0390499,0.726707378 19.9773121,0.495759586 C19.9155744,0.264811793 19.7351868,0.0844246956 19.5042389,0.0226874793 C19.273291,-0.039049737 19.0269548,0.0272651975 18.8582129,0.196600947 Z M1.5265398,9.99915148 C2.575348,8.76369094 6.02619362,5.09508419 9.99922129,5.09508419 C11.1109437,5.11374254 12.2059646,5.36879638 13.2115119,5.84329554 L12.146545,6.90827808 C10.6508773,5.86674135 8.62381847,6.04672199 7.33505593,7.33548565 C6.0462934,8.62424931 5.86631449,10.6513083 6.90785246,12.1469752 L5.55237896,13.5024487 C4.04030324,12.5459141 2.68278186,11.3645949 1.5265398,9.99915148 Z M16.3520583,6.1638883 C17.6684144,7.15025431 18.84953,8.3052269 19.8651078,9.59917945 C20.0428838,9.8361943 20.0428838,10.162103 19.8651078,10.3991179 C19.6873593,10.6391016 15.4254519,16.2386684 9.99920962,16.2386684 C8.93021803,16.2300768 7.87165982,16.0275513 6.87499237,15.6409367 L6.87499237,15.6409367 L7.92824462,14.5876844 C8.59937112,14.7940569 9.2970853,14.9011089 9.99921184,14.9054377 C13.9833273,14.9054377 17.4275066,11.2368312 18.4740927,10.0013707 C17.5599911,8.92754362 16.5250928,7.96272437 15.3899101,7.12603647 L15.3899101,7.12603647 Z M13.6078239,8.90812429 C13.7145414,9.26194781 13.7684516,9.62958504 13.7678172,9.99915143 C13.7665558,11.1915375 13.2016624,12.3131397 12.2443495,13.0240112 C11.2870367,13.7348827 10.0500061,13.9513347 8.90818977,13.6077626 L8.90818977,13.6077626 L10.0836371,12.4322975 C11.3617532,12.3874393 12.3874932,11.3617052 12.4323587,10.0835894 L12.4323587,10.0835894 Z M11.1811412,7.87366386 L7.87396,11.1808627 C7.6718647,10.8198104 7.56585558,10.4129162 7.56608518,9.99915144 C7.56542212,9.13674642 8.02166338,8.33852721 8.76509126,7.90142553 C9.50851914,7.46432386 10.4278659,7.45376009 11.1811412,7.87366386 Z" id="Shape"></path>
        </g>
    </g>
</svg>