<?xml version="1.0" encoding="UTF-8"?>
<svg width="50px" height="50px" viewBox="0 0 16 20" version="1.1" xmlns="http://www.w3.org/2000/svg" xmlns:xlink="http://www.w3.org/1999/xlink">
    <!-- Generator: Sketch 64 (93537) - https://sketch.com -->
    <title>icon/calendar</title>
    <desc>Created with Sketch.</desc>
    <g id="DESKTOP" stroke="none" stroke-width="1" fill="none" fill-rule="evenodd">
        <g id="acac-Classes-List-PopUp1" transform="translate(-594.000000, -442.000000)" fill="#808080">
            <g id="popup" transform="translate(562.000000, 255.000000)">
                <g id="Group-20" transform="translate(30.000000, 77.000000)">
                    <g id="date" transform="translate(0.000000, 108.000000)">
                        <g id="icon/menu/locations" transform="translate(0.000000, 2.000000)">
                            <path d="M3.40076465,8.17305267 C3.41675311,8.55803271 3.11762634,8.8830819 2.73264631,8.89907036 C2.34766627,8.91505882 2.02261708,8.61593205 2.00662862,8.23095202 C1.8232314,3.8150006 5.46911249,0 10.0013134,0 C14.5335142,0 18.1793953,3.8150006 17.9959976,8.23096531 C17.8698126,11.2679259 16.4478083,14.0722833 14.1716585,16.5883515 C13.3450229,17.502119 12.460967,18.3136019 11.5763295,19.0150412 C11.2659337,19.2611576 10.9770335,19.4763408 10.7167152,19.659508 L10.3878042,19.8834217 C10.2995457,19.9420245 10.1994689,19.9793455 10.0958597,19.9935451 C10.0881009,19.9946238 10.0811075,19.9954592 10.0741102,19.9961877 C10.0525884,19.9984731 10.0301279,19.9997807 10.0076124,20 L9.99518316,19.9998968 C9.98520443,19.9997997 9.97523653,19.999489 9.96528658,19.9989661 C9.9443073,19.9980697 9.92295308,19.996007 9.90166439,19.9929434 C9.88978046,19.990985 9.87769027,19.9889142 9.86566391,19.9865287 C9.84607871,19.9829054 9.82675338,19.9782065 9.80756949,19.9726486 C9.79185001,19.9678804 9.77596341,19.9626827 9.76026895,19.9569179 C9.74606513,19.9518349 9.73187945,19.9460609 9.71782272,19.9397856 C9.67936679,19.9222613 9.64811918,19.9050716 9.61820859,19.8854508 L9.45566656,19.7772096 C9.40631802,19.7435652 9.34964941,19.7043554 9.28611457,19.659652 C9.02582635,19.4765121 8.73695972,19.2613599 8.42660028,19.0152778 C7.54206695,18.3139366 6.65811546,17.5025579 5.83157734,16.588896 C4.53404412,15.1545923 3.50014403,13.602099 2.83044881,11.9428323 C2.71038467,11.6467837 2.60168197,11.343871 2.50444543,11.034582 C2.38888472,10.6670075 2.59318223,10.2753491 2.96075669,10.1597884 C3.32833114,10.0442276 3.71998958,10.2485252 3.83555028,10.6160996 C3.92158581,10.8897606 4.01760754,11.1573363 4.12393305,11.4195114 C4.7270435,12.9138024 5.67162231,14.3321718 6.86633131,15.6528127 C7.63776809,16.5055652 8.46593259,17.265737 9.29351523,17.9219224 C9.51017609,18.0937115 9.71485003,18.2487599 9.90450712,18.3865138 L10.001,18.455 L10.0983295,18.3863605 C10.288012,18.248584 10.4927131,18.0935109 10.7094027,17.9216952 C11.5370943,17.2654089 12.3653676,16.5051294 13.1369057,15.652267 C15.2134362,13.3568589 16.4911754,10.8370093 16.6018621,8.17305267 C16.75239,4.54854975 13.7389603,1.39533781 10.0013134,1.39533781 C6.2636664,1.39533781 3.25023677,4.54854975 3.40076465,8.17305267 Z M7.68089833,5.42602963 C8.96214037,4.14413122 11.0401401,4.14413122 12.3219122,5.42590328 C13.6031253,6.70711644 13.6031253,8.7849213 12.3219122,10.0667908 C11.0992243,11.2894786 9.14021684,11.3517932 7.82706817,10.2039137 L7.82706817,10.2039137 L7.68102465,10.0667908 C6.39925259,8.78501873 6.39925259,6.707019 7.68089833,5.42602963 Z M11.3352593,6.41255611 C10.5984427,5.67573947 9.40411687,5.67573947 8.66755113,6.41268242 C7.93086084,7.1489955 7.93086084,8.34332132 8.65090805,9.06392013 L8.65090805,9.06392013 L8.76266797,9.16899185 C9.50625189,9.81869002 10.6325334,9.78286384 11.335133,9.08026431 C12.0716013,8.34341875 12.0716013,7.14889806 11.3352593,6.41255611 Z" id="Stroke-7"></path>
                        </g>
                    </g>
                </g>
            </g>
        </g>
    </g>
</svg>