<?xml version="1.0" encoding="UTF-8"?>
<svg width="15px" height="15px" viewBox="0 0 15 15" version="1.1" xmlns="http://www.w3.org/2000/svg" xmlns:xlink="http://www.w3.org/1999/xlink">
    <!-- Generator: sketchtool 64 (101010) - https://sketch.com -->
    <title>B278BA32-B216-443B-8C0C-0B1C0FAF0EA4</title>
    <desc>Created with sketchtool.</desc>
    <g id="DESKTOP" stroke="none" stroke-width="1" fill="none" fill-rule="evenodd">
        <g id="acac-login" transform="translate(-564.000000, -465.000000)" fill="#7D7F7B">
            <g id="icon/login" transform="translate(564.000000, 465.000000)">
                <path d="M7.50019365,0 C9.5344391,0 11.1900871,1.56912158 11.2465737,3.52555365 L11.2480635,3.628875 L11.248,3.829 L11.5389233,3.829125 C12.9785695,3.829125 14.1562081,4.91561053 14.2446661,6.28810416 L14.25,6.454125 L14.25,12.375 C14.25,13.8245886 13.0360455,15 11.5389233,15 L11.5389233,15 L3.46107668,15 C1.96367699,15 0.75,13.8246949 0.75,12.375 L0.75,12.375 L0.75,6.454125 C0.75,5.00416144 1.9635672,3.829125 3.46107668,3.829125 L3.46107668,3.829125 L3.752,3.829 L3.75232378,3.628875 C3.75232378,1.62466144 5.43025968,0 7.50019365,0 Z M11.5389233,5.329125 L3.46107668,5.329125 C2.81915937,5.329125 2.29918668,5.83258856 2.29918668,6.454125 L2.29918668,6.454125 L2.29918668,12.375 C2.29918668,12.9963142 2.81931708,13.5 3.46107668,13.5 L3.46107668,13.5 L11.5389233,13.5 C12.1804533,13.5 12.7008133,12.9961614 12.7008133,12.375 L12.7008133,12.375 L12.7008133,6.454125 C12.7008133,5.83274127 12.1806111,5.329125 11.5389233,5.329125 L11.5389233,5.329125 Z M7.50007746,7.4888625 C7.90842827,7.4888625 8.24297642,7.79481667 8.27254619,8.18288912 L8.2746708,8.2388625 L8.2746708,10.4093625 C8.2746708,10.8235761 7.92787355,11.1593625 7.50007746,11.1593625 C7.09172665,11.1593625 6.7571785,10.8534083 6.72760873,10.4653359 L6.72548412,10.4093625 L6.72548412,8.2388625 C6.72548412,7.82464894 7.07228137,7.4888625 7.50007746,7.4888625 Z M7.50019365,1.5 C6.31409237,1.5 5.34741817,2.40927432 5.30309806,3.5472139 L5.30151046,3.628875 L5.301,3.829 L9.698,3.829 L9.69887684,3.628875 C9.69887684,2.45308856 8.71453544,1.5 7.50019365,1.5 Z" id="Stroke-5"></path>
            </g>
        </g>
    </g>
</svg>