<?xml version="1.0" encoding="UTF-8"?>
<svg width="20px" height="20px" viewBox="0 0 20 20" version="1.1" xmlns="http://www.w3.org/2000/svg" xmlns:xlink="http://www.w3.org/1999/xlink">
    <!-- Generator: sketchtool 62 (101010) - https://sketch.com -->
    <title>B345C2AF-759C-4A07-BA8C-EB3C2D0EFD22</title>
    <desc>Created with sketchtool.</desc>
    <g id="Asset-Artboard-Page" stroke="none" stroke-width="1" fill="none" fill-rule="evenodd">
        <g id="ico/show" fill="#FE5000">
            <path d="M15.2814829,5.53171547 C13.7028154,4.56253351 12.0741901,4.04796782 10.4455648,4.00300577 C8.75199433,3.95804372 7.0134618,4.41765579 5.28991663,5.3718504 C3.59634615,6.31105767 1.85781363,7.74984326 0.129272675,9.65823249 C-0.0405839507,9.84807226 -0.0455797339,10.1378277 0.129272675,10.3276675 C1.86280941,12.2660314 3.60633772,13.7297959 5.30989976,14.6839905 C6.97349554,15.618202 8.64708288,16.0928014 10.280704,16.0928014 C10.3506449,16.0928014 10.4155901,16.0928014 10.4855311,16.0928014 C12.1091606,16.0528351 13.7327901,15.5432652 15.3064618,14.5840748 C16.8501587,13.6398718 18.3938557,12.2260651 19.8875949,10.3876169 C20.0374684,10.2027729 20.0374684,9.94299214 19.8875949,9.75814816 C18.3788684,7.90471255 16.8301756,6.48591008 15.2814829,5.53171547 Z M14.7769086,13.7247995 C13.3581062,14.5940657 11.9043334,15.0536777 10.4555563,15.0886482 C8.93683824,15.1236187 7.36816236,14.6939814 5.78949492,13.8097278 C4.28076844,12.9654405 2.72707991,11.6815243 1.1683956,9.99294961 C2.71708834,8.33434967 4.26578109,7.07541236 5.764516,6.24611239 C7.33319188,5.37684616 8.89687197,4.96219617 10.4105942,5.00216243 C11.8643671,5.0421287 13.3231358,5.50673651 14.7519297,6.38099853 C16.1207743,7.22029007 17.4946146,8.45924424 18.8384802,10.0628906 C17.5046062,11.6615411 16.1357616,12.8954995 14.7769086,13.7247995 Z M10.0059359,6.36601114 C8.98679618,6.36601114 8.10254256,6.7307033 7.38814557,7.45009606 C6.66875279,8.16948881 6.30406062,9.0537424 6.30406062,10.0828737 C6.30406062,11.112005 6.66875279,11.9962586 7.38814557,12.7156513 C8.09754678,13.4250525 8.97680461,13.7947405 9.99594438,13.8097278 C10.0009402,13.8097278 10.0009402,13.8097278 10.0059359,13.8097278 C10.0109317,13.8097278 10.0109317,13.8097278 10.0159275,13.8097278 C11.0450588,13.7947405 11.9293125,13.4250525 12.6387137,12.7156513 C13.3481149,12.0062502 13.7178028,11.1219966 13.737786,10.0928653 C13.737786,10.0878695 13.737786,10.0828737 13.737786,10.0778779 C13.7227986,9.04874662 13.3531107,8.16449303 12.6437095,7.45509184 C11.9243167,6.7307033 11.0400631,6.36601114 10.0059359,6.36601114 Z" id="Shape"></path>
        </g>
    </g>
</svg>